<svg xmlns="http://www.w3.org/2000/svg" viewBox="0 0 70 71"><defs><style>.cls-1{fill:#fff;}.cls-2,.cls-3{fill:none;stroke-linecap:round;stroke-linejoin:round;stroke-width:1.5px;}.cls-2{stroke:#4cbbc0;}.cls-3{stroke:#4d4d4e;}.cls-4{fill:#4cbbc0;}</style></defs><title>banking</title><g id="Layer_2" data-name="Layer 2"><g id="Layer_136" data-name="Layer 136"><ellipse class="cls-1" cx="35" cy="35.5" rx="35" ry="35.5"/><line class="cls-2" x1="24.66" y1="38.67" x2="55.63" y2="38.67"/><path class="cls-3" d="M23.83,25.59H46.89a2,2,0,0,1,2,2v2.06"/><path class="cls-3" d="M21.66,45.42H19.95a2,2,0,0,1-2-2V34.65"/><rect class="cls-3" x="24.66" y="32.31" width="30.97" height="19.83" rx="3" ry="3"/><line class="cls-2" x1="27.88" y1="44.19" x2="33.96" y2="44.19"/><line class="cls-2" x1="36.57" y1="44.19" x2="42.65" y2="44.19"/><path class="cls-2" d="M50.77,45.51a1.67,1.67,0,0,0-1.3.63,1.68,1.68,0,0,0-3,1.12,1.67,1.67,0,0,0,1.7,1.65,1.7,1.7,0,0,0,1.3-.61,1.7,1.7,0,0,0,3-1A1.72,1.72,0,0,0,50.77,45.51Z"/><path class="cls-4" d="M17.72,31.17V29.79a4,4,0,0,1-2.09-.6l.33-.92a3.64,3.64,0,0,0,2,.59c1,0,1.63-.56,1.63-1.34S19,26.3,18,25.89c-1.39-.55-2.26-1.18-2.26-2.37a2.24,2.24,0,0,1,2.06-2.2V19.94h.85v1.33a3.64,3.64,0,0,1,1.78.48l-.34.9a3.3,3.3,0,0,0-1.72-.46c-1.05,0-1.45.63-1.45,1.18,0,.71.51,1.07,1.7,1.56,1.41.57,2.12,1.29,2.12,2.5a2.38,2.38,0,0,1-2.16,2.32v1.42Z"/></g></g></svg>