<svg xmlns="http://www.w3.org/2000/svg" viewBox="0 0 70 71"><defs><style>.cls-1{fill:#fff;}.cls-2,.cls-3{fill:none;stroke-linecap:round;stroke-linejoin:round;stroke-width:1.5px;}.cls-2{stroke:#4cbbc0;}.cls-3{stroke:#4d4d4e;}</style></defs><title>consultants_1</title><g id="Layer_2" data-name="Layer 2"><g id="Layer_152" data-name="Layer 152"><ellipse class="cls-1" cx="35" cy="35.5" rx="35.5" ry="35" transform="translate(-1.22 69.75) rotate(-88.8)"/><path class="cls-2" d="M27,29.88c-.26,1.06.34,3.34.32,4.38a.16.16,0,0,1-.26-.07,8.31,8.31,0,0,1-.45-1,5,5,0,0,0-.46-.81l-.36-.53c-.18-.16-.05-.24-.05-.24l.52-.47.27-.27a1.71,1.71,0,0,0,.5-1.39,1.51,1.51,0,0,1,.57-1.3c.14-.12.26-.26.4-.38a2.67,2.67,0,0,0,.87-1.85,8,8,0,0,1,.44-1.5,4.37,4.37,0,0,0,.24-1c0-.11,0-.19-.16-.18s-.12-.11-.11-.2a9,9,0,0,1,.13-1.24,2.13,2.13,0,0,0-.72-2.1,10.16,10.16,0,0,1-1-1.07c-.3-.34-.28-.4.11-.63,0-.07-.08-.09-.13-.12a3,3,0,0,0-1.71-.3,4.41,4.41,0,0,0-2.11.54c-.55.38-1.12.74-1.65,1.16a3.18,3.18,0,0,0-.55.53,3.36,3.36,0,0,0-.63,2q0,.13,0,.25a.26.26,0,0,1-.14.29c-.17.09-.19.29-.21.47a3.52,3.52,0,0,0,.08,1.37,1.69,1.69,0,0,0,.58.84,1.48,1.48,0,0,1,.58,1.08c0,.45.08.9.11,1.35a2.38,2.38,0,0,1-.16,1.06.37.37,0,0,0,.08.43,8.27,8.27,0,0,0,1.6,1.38c.59.42,1.19.84,1.81,1.22.15.09.11.16.06.3a7.82,7.82,0,0,1-.5,1.3c-.14.27-.29.53-.45.79a1,1,0,0,1-.16.2c-.17.17-.19.17-.32,0a37.9,37.9,0,0,1-2-3.36,3.67,3.67,0,0,1-.11-2.23,8.74,8.74,0,0,0-.52,1,1.74,1.74,0,0,1-1,1.15,14.91,14.91,0,0,1-2.17.78A9.31,9.31,0,0,0,15,32.9,6.88,6.88,0,0,0,12.83,36a5.57,5.57,0,0,0-.33,2c0,.26.57.22.77.22l13.13.27,8.24.17c.32,0,.33,0,.32-.31a5.93,5.93,0,0,0-.33-2.06,3.78,3.78,0,0,0-1.83-2c-1.37-.76-2.81-1.37-4.25-2A4.92,4.92,0,0,1,27,29.88Z"/><path class="cls-3" d="M43.12,40.9c.22,1.07-.47,3.32-.5,4.36a.16.16,0,0,0,.27-.06,8.31,8.31,0,0,0,.49-1,5,5,0,0,1,.5-.79l.39-.52c.19-.15.06-.24.06-.24l-.5-.49-.26-.28a1.71,1.71,0,0,1-.44-1.41,1.51,1.51,0,0,0-.52-1.32c-.13-.13-.25-.27-.38-.4a2.67,2.67,0,0,1-.79-1.88,8,8,0,0,0-.37-1.52,4.37,4.37,0,0,1-.2-1.06c0-.11,0-.19.17-.18s.12-.11.12-.19a9,9,0,0,0-.07-1.25,2.13,2.13,0,0,1,.81-2.06,10.16,10.16,0,0,0,1-1c.31-.33.29-.39-.08-.63,0-.07.08-.09.14-.11a3,3,0,0,1,1.72-.22,4.41,4.41,0,0,1,2.09.62c.54.4,1.09.79,1.6,1.22a3.18,3.18,0,0,1,.52.55A3.36,3.36,0,0,1,49.46,33q0,.13,0,.25a.26.26,0,0,0,.13.29c.16.1.18.3.19.47a3.52,3.52,0,0,1-.14,1.36,1.69,1.69,0,0,1-.61.82,1.48,1.48,0,0,0-.62,1.06c0,.45-.12.9-.17,1.35a2.38,2.38,0,0,0,.12,1.07.37.37,0,0,1-.1.43,8.27,8.27,0,0,1-1.66,1.32c-.61.39-1.23.78-1.86,1.14-.15.08-.12.16-.08.3a7.82,7.82,0,0,0,.45,1.32c.13.27.27.54.41.81a1,1,0,0,0,.15.2c.17.18.19.17.32,0a37.9,37.9,0,0,0,2.16-3.27,3.67,3.67,0,0,0,.2-2.22,8.74,8.74,0,0,1,.48,1,1.74,1.74,0,0,0,.94,1.19,14.91,14.91,0,0,0,2.13.87,9.31,9.31,0,0,1,3,1.65A6.88,6.88,0,0,1,57,47.59a5.57,5.57,0,0,1,.25,2c0,.26-.58.19-.78.19L43.36,49.5l-8.24-.17c-.32,0-.33,0-.31-.32a5.93,5.93,0,0,1,.42-2,3.78,3.78,0,0,1,1.91-2c1.41-.7,2.87-1.25,4.33-1.81C42.39,42.71,42.82,41.46,43.12,40.9Z"/></g></g></svg>