<svg xmlns="http://www.w3.org/2000/svg" viewBox="0 0 239.3 61.5"><defs><style>.cls-1{fill:#999;}</style></defs><title>logo</title><g id="Layer_2" data-name="Layer 2"><g id="Layer_3" data-name="Layer 3"><path class="cls-1" d="M88.2,30.3c0,2.7-.7,4.8-2.2,6.2a8.88,8.88,0,0,1-6.3,2.1H75.2V22.3h5a8,8,0,0,1,5.9,2.1A8,8,0,0,1,88.2,30.3Zm-2,.1a6.48,6.48,0,0,0-1.6-4.8A6.48,6.48,0,0,0,79.8,24H77V37.1h2.3a7,7,0,0,0,5.1-1.7A6.66,6.66,0,0,0,86.2,30.4Z"/><path class="cls-1" d="M95.3,31.9v6.8H93.4V22.3h4.5a7.11,7.11,0,0,1,4.5,1.2,4.08,4.08,0,0,1,1.4,3.5c0,2.2-1.1,3.6-3.3,4.4l4.5,7.4h-2.3l-4-6.8H95.3Zm0-1.7h2.6a5.1,5.1,0,0,0,3-.8,3,3,0,0,0,.9-2.4,2.43,2.43,0,0,0-1-2.3,5.07,5.07,0,0,0-3.1-.7H95.2v6.2Z"/><path class="cls-1" d="M120.7,38.7l-2-5.2h-6.6l-2,5.2h-1.9l6.5-16.5h1.6l6.4,16.5Zm-2.6-7-1.9-5.1c-.2-.6-.5-1.4-.8-2.4-.2.7-.4,1.5-.7,2.4l-1.9,5.1Z"/><path class="cls-1" d="M133.3,30.1h5.6v8a12.21,12.21,0,0,1-2.6.6,26.89,26.89,0,0,1-3.1.2,7.47,7.47,0,0,1-5.8-2.2,8.62,8.62,0,0,1-2.1-6.2,9.33,9.33,0,0,1,1-4.5,6.48,6.48,0,0,1,3-2.9,9.33,9.33,0,0,1,4.5-1,11.62,11.62,0,0,1,4.9,1l-.7,1.7a11.44,11.44,0,0,0-4.3-.9,6.1,6.1,0,0,0-4.7,1.8,6.94,6.94,0,0,0-1.7,4.9c0,2.2.5,3.9,1.6,5a6.52,6.52,0,0,0,4.8,1.7,12.42,12.42,0,0,0,3.3-.4v-5h-3.7Z"/><path class="cls-1" d="M158.6,30.5a9.23,9.23,0,0,1-2,6.2,8,8,0,0,1-11.1.1,9.23,9.23,0,0,1-2-6.2,9.05,9.05,0,0,1,2-6.2,7,7,0,0,1,5.6-2.2,6.81,6.81,0,0,1,5.5,2.2A8.61,8.61,0,0,1,158.6,30.5Zm-13.1,0a7.84,7.84,0,0,0,1.4,5,5.79,5.79,0,0,0,8.2,0,8,8,0,0,0,1.4-5.1,7.84,7.84,0,0,0-1.4-5,5.79,5.79,0,0,0-8.2,0A8.36,8.36,0,0,0,145.5,30.5Z"/><path class="cls-1" d="M176.6,38.7h-2.2l-9-13.8h-.1c.1,1.6.2,3.1.2,4.4v9.3h-1.8V22.3h2.2L174.8,36h.1c0-.2,0-.8-.1-1.9s-.1-1.9-.1-2.3V22.4h1.8V38.7Z"/><path class="cls-1" d="M190.5,38.7V22.3h1.9V37h7.2v1.7Z"/><path class="cls-1" d="M215.5,38.7l-2-5.2h-6.6l-2,5.2H203l6.5-16.5h1.6l6.4,16.5Zm-2.7-7-1.9-5.1c-.2-.6-.5-1.4-.8-2.4-.2.7-.4,1.5-.7,2.4l-1.9,5.1Z"/><path class="cls-1" d="M235,38.7h-1.9l-3.3-11c-.2-.5-.3-1.1-.5-1.8a8.67,8.67,0,0,1-.3-1.3,21.37,21.37,0,0,1-.8,3.2L225,38.7h-1.9l-4.4-16.4h2l2.6,10.1a33.89,33.89,0,0,1,.8,3.9,25.85,25.85,0,0,1,.9-4l2.9-10h2L233,32.4a22.29,22.29,0,0,1,.9,3.9,24.61,24.61,0,0,1,.8-3.9l2.6-10.1h2Z"/><path class="cls-1" d="M2.2,57.5A8.53,8.53,0,0,1,0,57a8.53,8.53,0,0,0,2.2.5"/><path class="cls-1" d="M34.1,44.4a13,13,0,0,0-4.5-1.6,4.33,4.33,0,0,1-.5-.1v2.1a10,10,0,0,1,2.9.6c.4.2,1,.4,1.8.7l.9,2.5,1.1-1.7a6.74,6.74,0,0,0,1.2.4s-.9,3-6,3.1a10.89,10.89,0,0,0-1.9.1h0c-.6,0-1.2-.1-1.9-.1-5,0-6-3.1-6-3.1s.5-.2,1.2-.4l1.1,1.7.9-2.5a15.73,15.73,0,0,1,1.8-.7,16.66,16.66,0,0,1,2.9-.6V42.7a4.33,4.33,0,0,0-.5.1,15.91,15.91,0,0,0-4.5,1.6c-8,3.4-9.9-2.3-9.9-2.3l-.5.5c.3,4,4.5,4.7,4.5,4.7a7.57,7.57,0,0,0,1.6.2,7.44,7.44,0,0,0,4.9,4.3l4.4.2,4.4-.2a7.14,7.14,0,0,0,4.9-4.3,7.57,7.57,0,0,0,1.6-.2s4.2-.7,4.5-4.7l-.5-.5c.1.1-1.9,5.8-9.9,2.3"/><path class="cls-1" d="M32.6,52.5l-3.5.1h0l-3.5-.1a7.14,7.14,0,0,1-6.3-4.6l-2.5,3.7,2,6.9,2.7-1.9,2.8,4.9L26.6,56l2.6.1,2.6-.1,2.3,5.5,2.8-4.9,2.7,1.9,2-6.9-2.5-3.7c-.2,0-1.7,4.4-6.5,4.6"/><path class="cls-1" d="M56,57.5a8.48,8.48,0,0,0,2.1-.5,7.17,7.17,0,0,1-2.1.5"/><path class="cls-1" d="M53.6,50c3.5-11.6-3.2-13.2-3.2-13.2-2.7-1.2-7.6-.5-8.5,2.5s-3.9,2.3-4.1,2.2v-.6c2.9.3,3.2-1.4,3.2-1.4,1.9-5.4,8.1-3.7,8.1-3.7h.3l2-1.3-1.9-.8,1.3-5.3H47.7l5.4-5-2.6-1.2L52.4,18l-3.4.5-.4-2.7-3.5.2a.77.77,0,0,1-.3-.1,8.63,8.63,0,0,1-2.2,2c-7.7,4.6-9.3,10.3-9.5,11.4l-.9-.1c.3-1.2,2.1-7.1,9.6-11.8C50.2,12.1,46.4,0,46.4,0s2.4,11.7-6,17c-7.5,4.7-9.1,10.7-9.4,12.1l-.9-.1c.1-.8,1.1-6.9,8.7-12a19.36,19.36,0,0,0,2.7-2.1c-2.6-.7-6.2-1.2-12.4-.9-6.2-.3-9.8.2-12.4.9.7.6,1.8,1.4,2.7,2.1C27,22.1,28,28.2,28.1,29l-.9.1c-.3-1.3-1.9-7.4-9.4-12.1-8.4-5.3-6-17-6-17S7.9,12.1,16.4,17.4C23.9,22.1,25.7,28,26,29.2l-.9.1c-.2-1.1-1.8-6.8-9.5-11.4a10.72,10.72,0,0,1-2.2-2,.77.77,0,0,1-.3.1l-3.5-.2-.4,2.7L5.8,18l1.9,4.2L5.1,23.4l5.4,5H7.4l1.3,5.3-1.9.8,2,1.3h.3s6.1-1.7,8.1,3.7c0,0,.3,1.7,3.2,1.5v.6c-.2,0-3.3.7-4.1-2.2s-5.7-3.7-8.5-2.5c0,0-6.8,1.6-3.2,13.2,2,6.6-.4,7.6-2.4,7.5,2.3.2,5.4-.6,3.4-7.5C2.5,39,8.4,38,8.4,38c2.5-1,6-.2,6.6,1.8,1.1,3.4,4.9,3.3,5.3,3.2v.6h0c-1.1.1-4.4.1-5.7-3.1a2.78,2.78,0,0,0-2.5-2l.7,2.7.3.5.9-.8c.8,2.1,2.5,4.9,6.5,3.9a11.67,11.67,0,0,0,3-1A15.46,15.46,0,0,1,29,42a12.32,12.32,0,0,1,5.5,1.8,18.72,18.72,0,0,0,3,1c4,1,5.8-1.8,6.5-3.9l1,.6.3-.5.7-2.7a2.78,2.78,0,0,0-2.5,2c-1.3,3.3-4.6,3.2-5.7,3.1h0v-.6c.5,0,4.3.2,5.3-3.2.6-2,4.1-2.8,6.6-1.8,0,0,6,1.1,2.8,12.1-2,6.9,1.1,7.7,3.4,7.5-1.9.2-4.3-.8-2.3-7.4m-38-14.8a3.88,3.88,0,0,1-1.2-1.7,3,3,0,0,1,.5-2.6,3,3,0,0,1,2.2-1.2l.3,1c-.3,0-1.6.2-1.9,1.2-.6,1.6,1,3.1,2.2,2.6a2.6,2.6,0,0,0,.7-.3l.5.9a2.87,2.87,0,0,1-3.3.1m9.9,5.7-.7-1.1,1.8-.3Zm-2,.8-.8.4c-.3-.5-2.9-5.2,3.1-5.3,0,0-1.6-11.4-11.1-11.3v-.9c10.7-.4,12.2,13.1,12.2,13.1-6.2-.6-3.4,4-3.4,4m20.2-8.2a3.19,3.19,0,0,1-1.2,1.7,3.12,3.12,0,0,1-3.3,0l.5-.9a2.6,2.6,0,0,0,.7.3A1.92,1.92,0,0,0,42.6,32c-.3-1-1.6-1.2-1.9-1.2l.3-1A2.75,2.75,0,0,1,43.2,31a2.38,2.38,0,0,1,.5,2.5m-11,7.4-1.1-1.5,1.8.3Zm2.7,1.2-.8-.4s2.8-4.6-3.4-4c0,0,1.5-13.4,12.2-13.1v.9c-9.5-.1-11.1,11.3-11.1,11.3,6,.1,3.4,4.8,3.1,5.3"/></g></g></svg>