<svg xmlns="http://www.w3.org/2000/svg" viewBox="0 0 70 71"><defs><style>.cls-1{fill:#fff;}.cls-2,.cls-3{fill:none;stroke-linecap:round;stroke-linejoin:round;stroke-width:1.5px;}.cls-2{stroke:#4d4d4e;}.cls-3{stroke:#4cbbc0;}</style></defs><title>food-beverage</title><g id="Layer_2" data-name="Layer 2"><g id="food_drinnk" data-name="food drinnk"><ellipse class="cls-1" cx="35" cy="35.5" rx="35" ry="35.5"/><path class="cls-2" d="M34.46,44.73a10.05,10.05,0,0,0-.21-1.2,4.15,4.15,0,0,0-4.17-3.43c-2.94-.06-5.89,0-8.84,0a4.05,4.05,0,0,0-3.62,2,6.49,6.49,0,0,0-.84,3c0,.32.07.44.42.44H34.47A7.07,7.07,0,0,0,34.46,44.73Z"/><path class="cls-2" d="M16.78,50.86H34.53a11.27,11.27,0,0,1-.19,1.25,3.8,3.8,0,0,1-3.47,2.78c-.61.05-1.23.08-1.85.08-2.63,0-5.26,0-7.89,0A4.55,4.55,0,0,1,18,53.81,3.91,3.91,0,0,1,16.78,50.86Z"/><path class="cls-3" d="M47.47,25.78l1.17-8.42s-.11-3.56,2-1.56,3.63,3.63,3.63,3.63"/><path class="cls-2" d="M49.15,55.18H39.4l-.2,0c-1-8.24-2-15.45-3.05-23.68H52.49Z"/><line class="cls-3" x1="14.9" y1="48.19" x2="36.15" y2="48.19"/></g></g></svg>