<svg xmlns="http://www.w3.org/2000/svg" viewBox="0 0 70 71"><defs><style>.cls-1{fill:#fff;}.cls-2,.cls-3,.cls-4{fill:none;stroke-linejoin:round;stroke-width:1.5px;}.cls-2,.cls-3{stroke:#4d4d4e;}.cls-2,.cls-4{stroke-linecap:round;}.cls-4{stroke:#4cbbc0;}</style></defs><title>hr</title><g id="Layer_2" data-name="Layer 2"><g id="Layer_141" data-name="Layer 141"><ellipse class="cls-1" cx="35" cy="35.5" rx="35" ry="35.5"/><path class="cls-2" d="M38.74,18.15s0,0,0-.06a3.8,3.8,0,0,0-7.6,0"/><path class="cls-2" d="M47.24,18.15H38.82v2.37h7.25a.54.54,0,0,1,.54.54V47.62a.54.54,0,0,1-.54.54H23.82a.54.54,0,0,1-.54-.54V21.07a.54.54,0,0,1,.54-.54h7.33V18.15h-8.5A1.63,1.63,0,0,0,21,19.78V55.4A1.63,1.63,0,0,0,22.65,57H47.24a1.63,1.63,0,0,0,1.63-1.63V19.78A1.63,1.63,0,0,0,47.24,18.15Z"/><path class="cls-3" d="M23.28,21.07V47.62a.54.54,0,0,0,.54.54H46.07a.54.54,0,0,0,.54-.54V21.07a.54.54,0,0,0-.54-.54H38.82v3.94H31.15V20.52H23.82A.54.54,0,0,0,23.28,21.07Z"/><circle class="cls-2" cx="34.95" cy="18.09" r="1.63"/><path class="cls-2" d="M29.34,7l4.69,10s.92,1.22,1.77,0"/><line class="cls-2" x1="40.32" y1="7.02" x2="36.9" y2="14.83"/><path class="cls-4" d="M32.7,37a19,19,0,0,1-.3,3.17.12.12,0,0,0,.19,0,6,6,0,0,0,.34-.75,3.63,3.63,0,0,1,.35-.58l.27-.38c.13-.11,0-.17,0-.17l-.37-.35-.19-.2a1.24,1.24,0,0,1-.34-1,1.09,1.09,0,0,0-.4-1c-.1-.09-.18-.2-.28-.28a1.93,1.93,0,0,1-.6-1.35A5.77,5.77,0,0,0,31.13,33a3.17,3.17,0,0,1-.16-.76c0-.08,0-.14.12-.13s.09-.08.09-.14a6.52,6.52,0,0,0-.07-.9,1.54,1.54,0,0,1,.55-1.51,7.37,7.37,0,0,0,.74-.76c.22-.24.21-.29-.07-.46,0-.05.06-.07.1-.08A2.15,2.15,0,0,1,33.67,28a3.2,3.2,0,0,1,1.52.42c.39.28.8.56,1.18.86a2.3,2.3,0,0,1,.39.39,2.44,2.44,0,0,1,.42,1.48q0,.09,0,.18a.19.19,0,0,0,.1.21c.12.07.13.22.15.34a2.55,2.55,0,0,1-.08,1,1.23,1.23,0,0,1-.43.6,1.08,1.08,0,0,0-.44.78c0,.33-.07.65-.1,1a1.73,1.73,0,0,0,.1.77.27.27,0,0,1-.07.31,6,6,0,0,1-1.18,1c-.44.3-.88.59-1.33.85-.11.06-.08.12-.05.22a5.67,5.67,0,0,0,.34,1c.1.2.2.39.31.58a.7.7,0,0,0,.11.14c.12.13.14.12.23,0a27.47,27.47,0,0,0,1.52-2.4A2.66,2.66,0,0,0,36.48,36a6.34,6.34,0,0,1,.36.72,1.26,1.26,0,0,0,.7.85,10.81,10.81,0,0,0,1.56.6,6.75,6.75,0,0,1,2.22,1.15,5,5,0,0,1,1.55,2.27,4,4,0,0,1,.21,1.45c0,.19-.42.15-.56.15H27c-.23,0-.24,0-.23-.23a4.3,4.3,0,0,1,.27-1.49A2.74,2.74,0,0,1,28.43,40c1-.53,2.06-.95,3.11-1.38C32.21,38.29,32.5,37.38,32.7,37Z"/></g></g></svg>