<svg xmlns="http://www.w3.org/2000/svg" viewBox="0 0 70 71"><defs><style>.cls-1{fill:#fff;}.cls-2,.cls-3{fill:none;stroke-linecap:round;stroke-linejoin:round;stroke-width:1.5px;}.cls-2{stroke:#4d4d4e;}.cls-3{stroke:#4cbbc0;}</style></defs><title>IoT_1</title><g id="Layer_2" data-name="Layer 2"><g id="IoT"><ellipse class="cls-1" cx="35" cy="35.5" rx="35" ry="35.5"/><path class="cls-2" d="M39,16.67"/><path class="cls-2" d="M24.84,18.17"/><line class="cls-2" x1="24.09" y1="23.76" x2="31.75" y2="25.94"/><line class="cls-2" x1="30.31" y1="38.74" x2="34.07" y2="29.32"/><line class="cls-2" x1="46.14" y1="18.06" x2="37.43" y2="24.24"/><line class="cls-2" x1="37.81" y1="27.88" x2="47.87" y2="34.03"/><rect class="cls-2" x="40.64" y="33.99" width="13.29" height="24.69" rx="2" ry="2"/><circle class="cls-3" cx="34.96" cy="26.19" r="3.15" transform="translate(-5.79 10.45) rotate(-15.71)"/><circle class="cls-3" cx="28.32" cy="42.51" r="4.27" transform="translate(-10.45 9.26) rotate(-15.71)"/><circle class="cls-3" cx="19.49" cy="20.96" r="5.55" transform="translate(-4.95 6.06) rotate(-15.71)"/><circle class="cls-3" cx="49.67" cy="15.66" r="4.27" transform="translate(-2.39 14.03) rotate(-15.71)"/><circle class="cls-3" cx="47.38" cy="55.84" r="1.19"/><line class="cls-2" x1="40.64" y1="37.72" x2="53.93" y2="37.72"/><line class="cls-2" x1="40.64" y1="52.87" x2="53.93" y2="52.87"/></g></g></svg>