<svg xmlns="http://www.w3.org/2000/svg" viewBox="0 0 70 71"><defs><style>.cls-1{fill:#fff;}.cls-2,.cls-3{fill:none;stroke-linecap:round;stroke-linejoin:round;stroke-width:1.5px;}.cls-2{stroke:#4d4d4e;}.cls-3{stroke:#4cbbc0;}</style></defs><title>logistics</title><g id="Layer_2" data-name="Layer 2"><g id="leverage"><ellipse class="cls-1" cx="35" cy="35.5" rx="35" ry="35.5"/><path class="cls-2" d="M39.61,34.21,28,38.08l3.84,11.56,11.65-3.87ZM29,51.67c-1.77-5.43-4.93-14.38-6.74-19.8-.13-.38-.28-.88-.57-1-2-1.06-4-2-6.1-3.11M26.2,50.32a4,4,0,0,0-.93,4.62,3.77,3.77,0,0,0,4,2.07,3.64,3.64,0,0,0,3.2-3.4,1.29,1.29,0,0,1,1.08-1.24c2.9-.91,5.79-1.88,8.68-2.83,1.82-.6,2.7-1,4.59-1.58l-.39-1.25"/><g id="leverage-2" data-name="leverage"><path class="cls-3" d="M47.44,19.13"/><polyline class="cls-3" points="50.78 22.07 48.54 20.24 48.54 14.96"/><circle class="cls-3" cx="48.54" cy="20.24" r="7.08"/></g></g></g></svg>