<svg xmlns="http://www.w3.org/2000/svg" viewBox="0 0 70 71"><defs><style>.cls-1{fill:#fff;}.cls-2,.cls-3{fill:none;stroke-linecap:round;stroke-linejoin:round;stroke-width:1.5px;}.cls-2{stroke:#4cbbc0;}.cls-3{stroke:#333;}</style></defs><title>pr</title><g id="Layer_2" data-name="Layer 2"><g id="Layer_149" data-name="Layer 149"><ellipse class="cls-1" cx="35" cy="35.5" rx="35" ry="35.5"/><path class="cls-2" d="M25,43.21c-.19.86.33,2.71.33,3.55a.13.13,0,0,1-.21-.05,6.76,6.76,0,0,1-.38-.85,4.08,4.08,0,0,0-.39-.65l-.31-.43c-.15-.13,0-.19,0-.19l.41-.39.22-.22a1.39,1.39,0,0,0,.38-1.14,1.22,1.22,0,0,1,.44-1.07c.11-.1.2-.22.32-.32a2.17,2.17,0,0,0,.67-1.52,6.48,6.48,0,0,1,.33-1.23,3.55,3.55,0,0,0,.18-.86c0-.09,0-.16-.13-.15s-.1-.09-.1-.16a7.32,7.32,0,0,1,.08-1,1.73,1.73,0,0,0-.62-1.69,8.27,8.27,0,0,1-.83-.85c-.25-.27-.23-.32.07-.51,0-.06-.06-.07-.11-.09A2.42,2.42,0,0,0,24,33.16a3.59,3.59,0,0,0-1.71.47c-.44.32-.9.62-1.32,1a2.58,2.58,0,0,0-.44.44A2.74,2.74,0,0,0,20,36.7q0,.1,0,.21a.22.22,0,0,1-.11.24c-.13.07-.15.24-.16.38a2.87,2.87,0,0,0,.09,1.11,1.38,1.38,0,0,0,.48.68,1.21,1.21,0,0,1,.49.87c0,.37.08.73.11,1.1a1.94,1.94,0,0,1-.11.87.3.3,0,0,0,.08.35,6.73,6.73,0,0,0,1.33,1.1c.49.33,1,.66,1.5,1,.12.07.09.13.06.24a6.36,6.36,0,0,1-.39,1.07c-.11.22-.23.44-.35.65a.78.78,0,0,1-.13.16c-.14.14-.16.14-.26,0a30.84,30.84,0,0,1-1.7-2.7,3,3,0,0,1-.13-1.81,7.12,7.12,0,0,0-.41.8,1.42,1.42,0,0,1-.78,1,12.13,12.13,0,0,1-1.75.67,7.57,7.57,0,0,0-2.49,1.29,5.6,5.6,0,0,0-1.75,2.55A4.53,4.53,0,0,0,13.38,50c0,.21.47.17.63.16H31.41c.26,0,.27,0,.26-.26a4.83,4.83,0,0,0-.31-1.67,3.08,3.08,0,0,0-1.52-1.62c-1.13-.59-2.31-1.07-3.49-1.55C25.6,44.7,25.27,43.68,25,43.21Z"/><path class="cls-3" d="M45.25,19.49h1.37a3.87,3.87,0,0,0,.59,0,12.82,12.82,0,0,1,2.57.32,15.46,15.46,0,0,1,2.68.83,12.56,12.56,0,0,1,2.79,1.57,9.49,9.49,0,0,1,1.17,1,7.06,7.06,0,0,1,1.82,3.2,5.95,5.95,0,0,1-.56,4.14,7.34,7.34,0,0,1-1,1.41,10,10,0,0,1-2.06,1.78,13.56,13.56,0,0,1-2.69,1.35,15.37,15.37,0,0,1-2.37.67c-.63.13-1.26.21-1.9.28a20.9,20.9,0,0,1-2.47.07A15,15,0,0,1,43.39,36c-.56-.08-1.11-.18-1.66-.31a.38.38,0,0,0-.29.07c-.52.29-1.05.57-1.59.83a26.65,26.65,0,0,1-3,1.29,15.13,15.13,0,0,1-2.77.73,2.52,2.52,0,0,1-.45,0c-.07,0-.1-.05-.13-.11v-.08c0-.2.18-.29.31-.4.57-.46,1.14-.93,1.68-1.42q.53-.49,1-1a8.22,8.22,0,0,0,1-1.41c.07-.12.07-.13,0-.2a10.2,10.2,0,0,1-2.23-1.83A7.19,7.19,0,0,1,34,30.26a6.11,6.11,0,0,1-.45-1.45,3.82,3.82,0,0,1,0-.55,10.41,10.41,0,0,1,0-1.32,4.63,4.63,0,0,1,.25-1A6.92,6.92,0,0,1,35,23.81a8.68,8.68,0,0,1,1.14-1.16,11.59,11.59,0,0,1,2.19-1.47,14.71,14.71,0,0,1,2-.85,15.5,15.5,0,0,1,2.29-.6,11,11,0,0,1,1.72-.21C44.64,19.52,44.95,19.52,45.25,19.49Z"/></g></g></svg>