<svg xmlns="http://www.w3.org/2000/svg" viewBox="0 0 70 71"><defs><style>.cls-1{fill:#fff;}.cls-2,.cls-3{fill:none;stroke-linecap:round;stroke-linejoin:round;stroke-width:1.5px;}.cls-2{stroke:#4d4d4e;}.cls-3{stroke:#4cbbc0;}</style></defs><title>social-enterprise</title><g id="Layer_2" data-name="Layer 2"><g id="Layer_103" data-name="Layer 103"><ellipse class="cls-1" cx="35" cy="35.5" rx="35" ry="35.5"/><path class="cls-2" d="M41.69,43.91a11,11,0,0,0-4.31-.59,7,7,0,0,1-2-.16,1.55,1.55,0,0,1-1.23-1.67A1.45,1.45,0,0,1,35.49,40a4.58,4.58,0,0,1,1.3-.11A24.24,24.24,0,0,0,45.28,39c5.65-1.42,10,1.93,12.67,6.25a.74.74,0,0,1-.2,1c-1,1-2,2-3,3a.7.7,0,0,1-1.19,0c-.25-.26-.51-.51-.76-.76a5.13,5.13,0,0,0-5.11-1.51,20.19,20.19,0,0,0-2.5.75c-4.22,1.61-8.11.37-11.86-1.48a14.74,14.74,0,0,1-3.71-3.15c-.44-.45-.89-1-.49-1.69s1.14-.63,1.82-.46a3.37,3.37,0,0,1,1.61,1C35.16,44.71,38.35,44.77,41.69,43.91Z"/><path class="cls-3" d="M29.48,29a11,11,0,0,0,4.31.59,7,7,0,0,1,2,.16A1.55,1.55,0,0,1,37,31.42,1.45,1.45,0,0,1,35.69,33a4.58,4.58,0,0,1-1.3.11,24.24,24.24,0,0,0-8.49.84c-5.65,1.42-10-1.93-12.67-6.25a.74.74,0,0,1,.2-1c1-1,2-2,3-3a.7.7,0,0,1,1.19,0c.25.26.51.51.76.76a5.13,5.13,0,0,0,5.11,1.51A20.19,20.19,0,0,0,26,25.1c4.22-1.61,8.11-.37,11.86,1.48a14.74,14.74,0,0,1,3.71,3.15c.44.45.89,1,.49,1.69s-1.14.63-1.82.46a3.37,3.37,0,0,1-1.61-1C36,28.21,32.83,28.15,29.48,29Z"/></g></g></svg>