<svg xmlns="http://www.w3.org/2000/svg" viewBox="0 0 70 71"><defs><style>.cls-1{fill:#fff;}.cls-2,.cls-3{fill:none;stroke-linecap:round;stroke-linejoin:round;stroke-width:1.5px;}.cls-2{stroke:#4cbbc0;}.cls-3{stroke:#4d4d4e;}</style></defs><title>startups</title><g id="Layer_2" data-name="Layer 2"><g id="grow"><ellipse class="cls-1" cx="35" cy="35.5" rx="35" ry="35.5"/><path class="cls-2" d="M34.38,39.06a17.9,17.9,0,0,1,2.25-10.54S33.07,17.11,47.77,16.08c0,0,2.41,14.34-10.76,12.66"/><path class="cls-2" d="M34.23,39.06a13.15,13.15,0,0,0-1.65-7.74s2.62-8.38-8.18-9.13c0,0-1.77,10.53,7.9,9.3"/><path class="cls-3" d="M33,49.74a12.11,12.11,0,0,0-4.75-.65A7.73,7.73,0,0,1,26,48.92a1.71,1.71,0,0,1-1.36-1.83,1.59,1.59,0,0,1,1.49-1.69,5,5,0,0,1,1.43-.12,26.69,26.69,0,0,0,9.35-.92c6.22-1.57,11.06,2.12,13.95,6.88a.81.81,0,0,1-.21,1.14c-1.13,1.1-2.25,2.2-3.34,3.34a.77.77,0,0,1-1.31,0c-.27-.28-.56-.56-.83-.84a5.64,5.64,0,0,0-5.63-1.66,22.22,22.22,0,0,0-2.75.82c-4.65,1.77-8.93.41-13.06-1.63A16.23,16.23,0,0,1,19.67,49c-.49-.5-1-1.13-.54-1.86s1.25-.69,2-.51a3.71,3.71,0,0,1,1.77,1.08C25.8,50.62,29.31,50.69,33,49.74Z"/></g></g></svg>